<svg width="18" height="20" viewBox="0 0 18 20" fill="none" xmlns="http://www.w3.org/2000/svg">
<path d="M15 5.00001H14.65C14.8782 4.53277 14.9979 4.01999 15 3.50001C15.003 2.80333 14.7975 2.1217 14.4098 1.54284C14.0221 0.963978 13.4701 0.514391 12.8247 0.251946C12.1794 -0.0104998 11.4703 -0.0737908 10.7886 0.0702193C10.107 0.214229 9.48405 0.558949 9 1.06001C8.51595 0.558949 7.89302 0.214229 7.21138 0.0702193C6.52975 -0.0737908 5.82061 -0.0104998 5.17525 0.251946C4.5299 0.514391 3.97786 0.963978 3.59019 1.54284C3.20252 2.1217 2.99697 2.80333 3 3.50001C3.00213 4.01999 3.12178 4.53277 3.35 5.00001H3C2.20435 5.00001 1.44129 5.31608 0.87868 5.87869C0.316071 6.4413 0 7.20436 0 8.00001V10C0 10.2652 0.105357 10.5196 0.292893 10.7071C0.48043 10.8946 0.734784 11 1 11H2V17C2 17.7957 2.31607 18.5587 2.87868 19.1213C3.44129 19.6839 4.20435 20 5 20H13C13.7956 20 14.5587 19.6839 15.1213 19.1213C15.6839 18.5587 16 17.7957 16 17V11H17C17.2652 11 17.5196 10.8946 17.7071 10.7071C17.8946 10.5196 18 10.2652 18 10V8.00001C18 7.20436 17.6839 6.4413 17.1213 5.87869C16.5587 5.31608 15.7956 5.00001 15 5.00001ZM8 18H5C4.73478 18 4.48043 17.8947 4.29289 17.7071C4.10536 17.5196 4 17.2652 4 17V11H8V18ZM8 9.00001H2V8.00001C2 7.73479 2.10536 7.48044 2.29289 7.2929C2.48043 7.10536 2.73478 7.00001 3 7.00001H8V9.00001ZM8 5.00001H6.5C6.20333 5.00001 5.91332 4.91203 5.66665 4.74721C5.41997 4.58239 5.22771 4.34812 5.11418 4.07403C5.00065 3.79994 4.97094 3.49834 5.02882 3.20737C5.0867 2.9164 5.22956 2.64913 5.43934 2.43935C5.64912 2.22957 5.91639 2.08671 6.20736 2.02883C6.49834 1.97095 6.79994 2.00066 7.07403 2.11419C7.34811 2.22772 7.58238 2.41998 7.7472 2.66665C7.91203 2.91333 8 3.20333 8 3.50001V5.00001ZM10 3.50001C10 3.20333 10.088 2.91333 10.2528 2.66665C10.4176 2.41998 10.6519 2.22772 10.926 2.11419C11.2001 2.00066 11.5017 1.97095 11.7926 2.02883C12.0836 2.08671 12.3509 2.22957 12.5607 2.43935C12.7704 2.64913 12.9133 2.9164 12.9712 3.20737C13.0291 3.49834 12.9994 3.79994 12.8858 4.07403C12.7723 4.34812 12.58 4.58239 12.3334 4.74721C12.0867 4.91203 11.7967 5.00001 11.5 5.00001H10V3.50001ZM14 17C14 17.2652 13.8946 17.5196 13.7071 17.7071C13.5196 17.8947 13.2652 18 13 18H10V11H14V17ZM16 9.00001H10V7.00001H15C15.2652 7.00001 15.5196 7.10536 15.7071 7.2929C15.8946 7.48044 16 7.73479 16 8.00001V9.00001Z" fill="white"/>
</svg>
